<svg xmlns="http://www.w3.org/2000/svg" viewBox="0 0 20.1 18.9">
  <g fill="#000" stroke="#000" stroke-width="0.6" stroke-linejoin="round" stroke-linecap="round">
    <path d="M6.6,17.9c4.8,1.8,10.4-.4,12.3-5.2.4-1,.9-3.1.3-4.1-.7-1-2.5-1.5-3.6-1.8,0,0,0,0,0,0,.2-.4.8-1.1.9-1.4.1-.5-.4-.7-.8-.4-.2.2-1,1.6-1.1,1.6-.7-.1-1.5-.2-2.2-.3-2.3-.2-5-.1-7.3.3-1.3.3-4.4,1-4.6,2.7,0,.2,0,.5,0,.7.2,3.6,2.7,6.6,6,7.9ZM16.7,14.7c-4,4.7-12.1,3.6-14.5-2.1-.1-.3-.4-1.1-.5-1.5,0-.1.3.1.3.1,3.6,1.9,10.6,1.9,14.4.7.4-.1.8-.3,1.2-.4.3-.1.5-.3.8-.4-.2,1.3-.9,2.6-1.8,3.6ZM4.9,11.4h.4c2.1-.5,4.3-.6,6.5-.5l-.6,1s-.2,0-.3,0c-1,0-2.5,0-3.5-.1-.9,0-1.7-.2-2.6-.4ZM12.3,11.9c0,0,0,0,0-.1,0,0,.4-.6.4-.6,0,0,0,0,.1,0l2.4.4h-.5c0,.1-2.4.5-2.4.5ZM15.1,7.6c1,.2,2.1.5,3,1.1.5.4.8.8.3,1.4-.4.4-1.1.7-1.6.9-1.1-.3-2.3-.6-3.4-.7l1.8-2.6ZM3.4,8c.8-.3,1.7-.5,2.6-.7,2.7-.5,5.5-.4,8.2,0l-1.7,2.7c-.1.1-1,0-1.2,0-2.6,0-5.3.1-7.8.9-.5-.2-1.8-.8-1.9-1.4,0-.7,1.4-1.3,1.9-1.5Z"/>
    <path d="M7.7,4.9c1.7.4,5.1.4,6.4-.8,1.4-1.3-.6-2.6-1.9-2.8-.5,0-.7.6-.3.8.3.1.7.2,1.1.4.5.3,1,.6.4,1.1-1.3,1-5.6,1-6.9,0-.6-.5-.2-.8.4-1.1.6-.3,1.4-.4,2.1-.5,0,.1,0,.4,0,.5.1.1.4.1.6,0,.1,0,.8-.7.8-.9,0,0,0-.2,0-.2,0-.2-.7-.8-.9-.9-.4-.2-.7.3-.5.7-1,0-3,.5-3.5,1.6-.6,1.3,1.2,2,2.2,2.3Z"/>
  </g>
</svg>