<?xml version="1.0" encoding="UTF-8"?>
<svg id="Layer_1" xmlns="http://www.w3.org/2000/svg" version="1.1" viewBox="0 0 20.1 19.2">
  <!-- Generator: Adobe Illustrator 29.0.1, SVG Export Plug-In . SVG Version: 2.1.0 Build 192)  -->
  <defs>
    <style>
      .st0 {
        stroke: #000;
        stroke-miterlimit: 10;
        stroke-width: .8px;
      }
    </style>
  </defs>
  <path class="st0" d="M6.6,18c4.8,1.8,10.4-.4,12.3-5.2.4-1,.9-3.1.3-4.1-.7-1-2.5-1.5-3.6-1.8,0,0,0,0,0,0,.2-.4,1.9-2.8,2-3.1.1-.5-.4-.7-.8-.4-.2.2-2,3.3-2.1,3.3-.7-.1-1.5-.2-2.2-.3-2.3-.2-5-.1-7.3.3-1.3.3-4.4,1-4.6,2.7,0,.2,0,.5,0,.7.2,3.6,2.7,6.6,6,7.9ZM16.7,14.8c-4,4.7-12.1,3.6-14.5-2.1-.1-.3-.4-1.1-.5-1.5,0-.1.3.1.3.1,3.6,1.9,10.6,1.9,14.4.7.4-.1.8-.3,1.2-.4.3-.1.5-.3.8-.4-.2,1.3-.9,2.6-1.8,3.6ZM15.1,7.7c1,.2,2.1.5,3,1.1.5.4.8.8.3,1.4-.4.4-1.1.7-1.6.9-1.1-.3-2.3-.6-3.4-.7l1.8-2.6ZM3.4,8.1c.8-.3,1.7-.5,2.6-.7,2.7-.5,5.5-.4,8.2,0l-1.7,2.7c-.1.1-1,0-1.2,0-2.6,0-5.3.1-7.8.9-.5-.2-1.8-.8-1.9-1.4,0-.7,1.4-1.3,1.9-1.5Z"/>
  <path class="st0" d="M7.7,5c1.7.4,5.1.4,6.4-.8,1.4-1.3-.6-2.6-1.9-2.8-.5,0-.7.6-.3.8.3.1.7.2,1.1.4.5.3,1,.6.4,1.1-1.3,1-5.6,1-6.9,0-.6-.5-.2-.8.4-1.1.6-.3,1.4-.4,2.1-.5,0,.1,0,.4,0,.5.1.1.4.1.6,0,.1,0,.8-.7.8-.9,0,0,0-.2,0-.2,0-.2-.7-.8-.9-.9-.4-.2-.7.3-.5.7-1,0-3,.5-3.5,1.6-.6,1.3,1.2,2,2.2,2.3Z"/>
</svg>